<?xml version="1.0" encoding="UTF-8"?>
<svg width="20px" height="20px" viewBox="0 0 20 20" version="1.1" xmlns="http://www.w3.org/2000/svg" xmlns:xlink="http://www.w3.org/1999/xlink">
    <!-- Generator: Sketch 47.1 (45422) - http://www.bohemiancoding.com/sketch -->
    <title>Group 7</title>
    <desc>Created with Sketch.</desc>
    <defs></defs>
    <g id="Page-1" stroke="none" stroke-width="1" fill="none" fill-rule="evenodd">
        <g id="Artboard-4" transform="translate(-549.000000, -29.000000)">
            <g id="Group-7" transform="translate(549.000000, 29.000000)">
                <g id="Group-6" fill="#55B257">
                    <circle id="Oval" cx="10" cy="10" r="10"></circle>
                </g>
                <path d="M7,3 L13,3 C14.1045695,3 15,3.8954305 15,5 L15,15 C15,16.1045695 14.1045695,17 13,17 L7,17 C5.8954305,17 5,16.1045695 5,15 L5,5 L5,5 C5,3.8954305 5.8954305,3 7,3 L7,3 Z M6,4 L6,13 L14,13 L14,4 L6,4 Z M10,16 C10.5522847,16 11,15.5522847 11,15 C11,14.4477153 10.5522847,14 10,14 C9.44771525,14 9,14.4477153 9,15 C9,15.5522847 9.44771525,16 10,16 Z" id="Combined-Shape" fill="#FFFFFF"></path>
            </g>
        </g>
    </g>
</svg>