<?xml version="1.0" encoding="UTF-8"?>
<svg width="20px" height="20px" viewBox="0 0 20 20" version="1.1" xmlns="http://www.w3.org/2000/svg" xmlns:xlink="http://www.w3.org/1999/xlink">
    <!-- Generator: Sketch 47.1 (45422) - http://www.bohemiancoding.com/sketch -->
    <title>Group 6</title>
    <desc>Created with Sketch.</desc>
    <defs></defs>
    <g id="Page-1" stroke="none" stroke-width="1" fill="none" fill-rule="evenodd">
        <g id="Artboard-4" transform="translate(-578.000000, -29.000000)">
            <g id="Group-6" transform="translate(578.000000, 29.000000)">
                <circle id="Oval" fill="#55B257" cx="10" cy="10" r="10"></circle>
                <path d="M10,17 C6.66666667,13.3351397 5,10.6129175 5,8.83333333 C5,6.16395704 7.23857625,4 10,4 C12.7614237,4 15,6.16395704 15,8.83333333 C15,10.6129175 13.3333333,13.3351397 10,17 Z M10,11.8928571 C11.7094528,11.8928571 13.0952381,10.5417165 13.0952381,8.875 C13.0952381,7.20828352 11.7094528,5.85714286 10,5.85714286 C8.2905472,5.85714286 6.9047619,7.20828352 6.9047619,8.875 C6.9047619,10.5417165 8.2905472,11.8928571 10,11.8928571 Z" id="Combined-Shape" fill="#FFFFFF"></path>
            </g>
        </g>
    </g>
</svg>